<?xml version="1.0" encoding="UTF-8"?>
<svg id="Layer_1" data-name="Layer 1" xmlns="http://www.w3.org/2000/svg" xmlns:xlink="http://www.w3.org/1999/xlink" version="1.1" viewBox="0 0 720 720">
  <defs>
    <style>
      .cls-1 {
        clip-path: url(#clippath);
      }

      .cls-2 {
        fill: none;
      }

      .cls-2, .cls-3 {
        stroke-width: 0px;
      }

      .cls-3 {
        fill: #000;
      }
    </style>
    <clipPath id="clippath">
      <rect class="cls-2" width="720" height="720"/>
    </clipPath>
  </defs>
  <g class="cls-1">
    <path class="cls-3" d="M541.7,534.6c93.7-97.5,93.7-251.8,0-349.2l36.3-36.3c37,35.2,87,56.9,142,56.9v-16c-50.6,0-96.6-19.9-130.7-52.2l57.8-57.8h22.3l50.6-51.1h-28.9V0l-51.1,50.7v22.3l-57.8,57.8c-32.3-34.2-52.2-80.2-52.2-130.8h-16c0,55,21.7,105,56.9,142l-36.3,36.3c-97.5-93.7-251.8-93.7-349.2,0l-36.3-36.3C184.3,105,206,55,206,0h-16c0,50.6-19.9,96.6-52.2,130.7l-57.8-57.8v-22.2L28.9,0v28.9H0l50.7,51.1h22.3l57.8,57.8C96.6,170.1,50.6,190,0,190v16c55,0,105-21.7,142-56.9l36.3,36.3c-93.7,97.5-93.7,251.8,0,349.2l-36.3,36.3c-37-35.2-87-56.9-142-56.9v16c50.6,0,96.6,19.9,130.7,52.2l-57.8,57.8h-22.2L0,691.1h28.9v28.9l51.1-50.7v-22.3l57.8-57.8c32.3,34.2,52.2,80.2,52.2,130.8h16c0-55-21.7-105-56.9-142l36.3-36.3c97.5,93.7,251.8,93.7,349.2,0l36.3,36.3c-35.2,37-56.9,87-56.9,142h16c0-50.6,19.9-96.6,52.2-130.7l57.8,57.8v22.3l51.1,50.7v-28.9h28.9l-50.7-51.2h-22.3l-57.8-57.8c34.2-32.3,80.2-52.2,130.8-52.2v-16c-55,0-105,21.7-142,56.9l-36.3-36.3ZM523.3,189.6l-14.1,14.1c-83.4-79.7-214.9-79.7-298.3,0l-14.1-14.1c91.1-87.5,235.3-87.5,326.5,0ZM378.5,378.3l23,16.2c-2.1,2.5-4.5,4.9-7,7l-16.2-23c-10.1,10-26.4,10-36.5,0l-16.2,23c-2.5-2.1-4.9-4.5-7-7l23-16.2c-10-10.1-10-26.4,0-36.5l-23-16.3c2.1-2.5,4.5-4.9,7-7l16.3,23c10.1-10,26.4-10,36.5,0l16.2-23c2.5,2.1,4.9,4.5,7,7l-23,16.2c9.9,10.2,9.9,26.4,0,36.6ZM394.5,318.4c-19.9-16.6-49-16.6-69,0l-18.4-18.4c30.2-26.7,75.6-26.7,105.8,0l-18.4,18.4ZM318.4,325.5c-16.6,19.9-16.6,49,0,69l-18.4,18.4c-26.7-30.2-26.7-75.6,0-105.8l18.4,18.4ZM325.5,401.5c19.9,16.6,49,16.6,69,0l18.4,18.4c-30.2,26.7-75.6,26.7-105.8,0l18.4-18.4ZM401.5,394.5c16.6-19.9,16.6-49,0-69l18.4-18.4c26.7,30.2,26.7,75.6,0,105.8l-18.4-18.4ZM287.3,280.2l-18.4-18.4c51.3-47.7,130.9-47.7,182.3,0l-18.4,18.4c-41.2-37.6-104.4-37.6-145.5,0ZM280.2,287.3c-37.6,41.2-37.6,104.3,0,145.5l-18.4,18.4c-47.7-51.3-47.7-130.9,0-182.3l18.4,18.4ZM287.3,439.8c41.2,37.6,104.3,37.6,145.5,0l18.4,18.4c-51.3,47.7-130.9,47.7-182.3,0l18.4-18.4ZM439.8,432.7c37.6-41.2,37.6-104.3,0-145.5l18.4-18.4c47.7,51.3,47.7,130.9,0,182.3l-18.4-18.4ZM249.1,242l-18.4-18.4c72.4-68.8,186.2-68.8,258.6,0l-18.4,18.4c-62.3-58.6-159.5-58.6-221.8,0ZM242,249.1c-58.6,62.3-58.6,159.6,0,221.9l-18.4,18.4c-68.8-72.4-68.8-186.2,0-258.6l18.4,18.3ZM249.1,478c62.3,58.6,159.6,58.6,221.9,0l18.4,18.4c-72.5,68.8-186.2,68.8-258.6,0l18.3-18.4ZM478,470.9c58.6-62.3,58.6-159.6,0-221.9l18.4-18.4c68.8,72.4,68.8,186.2,0,258.6l-18.4-18.3ZM189.6,196.7l14.1,14.1c-79.7,83.4-79.7,214.9,0,298.3l-14.1,14.1c-87.5-91.1-87.5-235.3,0-326.5ZM196.7,530.4l14.1-14.1c83.4,79.7,214.9,79.7,298.3,0l14.1,14.1c-91.1,87.5-235.3,87.5-326.5,0ZM530.4,523.3l-14.1-14.1c79.7-83.4,79.7-214.9,0-298.3l14.1-14.1c87.5,91.1,87.5,235.3,0,326.5Z"/>
  </g>
</svg>