<?xml version="1.0" encoding="UTF-8"?>
<svg id="Layer_1" data-name="Layer 1" xmlns="http://www.w3.org/2000/svg" xmlns:xlink="http://www.w3.org/1999/xlink" version="1.1" viewBox="0 0 720 720">
  <defs>
    <style>
      .cls-1 {
        clip-path: url(#clippath);
      }

      .cls-2 {
        fill: none;
      }

      .cls-2, .cls-3 {
        stroke-width: 0px;
      }

      .cls-3 {
        fill: #000;
      }
    </style>
    <clipPath id="clippath">
      <rect class="cls-2" width="720" height="720"/>
    </clipPath>
  </defs>
  <g class="cls-1">
    <path class="cls-3" d="M137.1,198.7L335.8,0l7.1,7.1-209.9,209.8c2-5.8,3.4-11.8,4.1-18.2ZM180.1,79.3L252.3,7.1l-7-7.1-71.8,71.8c2.9,2.3,5.1,4.8,6.6,7.5ZM108.9,193.5c3.5-49.4,11.1-65.9,27.8-86.2,9.7-11.8,16-25.5,18.6-35.4-.5-.2-.9-.4-1.4-.7-17.8-7.8-33.3-13-45.2-15.4-12.7-2.4-19-3.1-22.7,1,20.9,26.9,2.4,63.9-31.1,66.6,0,0,.7,7.3,1.5,18.1l22.4-11.5c2.5-1.3,5.5-.3,6.7,2.2,1.3,2.5.3,5.5-2.2,6.7l-26.3,13.4c0,2.6.3,5.4.4,8.2l17.7-9c2.5-1.3,5.5-.3,6.7,2.2,1.3,2.5.3,5.5-2.2,6.7l-21.8,11.2c0,2.8,0,5.5.2,8.3l13.5-6.9c2.5-1.3,5.5-.3,6.7,2.2,1.3,2.5.3,5.5-2.2,6.7l-18.1,9.2c0,1.2,0,2.5,0,3.7,0,1.7-.2,3.3-.3,4.9l10.3-5.3c2.5-1.3,5.5-.3,6.7,2.2,1.3,2.5.3,5.5-2.2,6.7l-16.6,8.5c-4.7,23.3-15.7,42.9-17.2,58,0,.7,0,1.4,0,2,43.4-20.7,68.4-48.5,70.5-78.3ZM118.9,194.2c-2.4,33.6-29.4,64.2-76.1,86.6,2.6,2,6.3,2.8,10.6,1.4,2.2-.7,7.1-3,13.5-6.7l4.7,5.3-2.2-6.8c6.6-4,14.5-9.4,22.2-16.2l6.3,5.3-4.1-7.2c7.4-6.6,14.5-14.4,20.3-23.3l5.8,2.7-4.5-4.6c6.4-10.4,11-22.2,12-35.3.9-12.7,2.5-23.3,4.5-32.4,8-30.8,23.5-42.3,30.7-52.8,10.9-15.9,15.4-24.3,1.5-32.8-3.4,11.3-10.1,24.7-19.6,36.2-14.8,18-22.1,31.7-25.6,80.6ZM720,199.7l-64.2,64.2c.9,29-4.1,58.1-15.3,85.3l68.2-68.2,11.3,11.3-303.1,303.2c-80.6,80.6-211.8,80.6-292.4,0-16.3-16.3-29.3-34.7-39-54.3l-74.2,74.2-11.3-11.4,78.6-78.6c-7.1-18.1-11.6-37-13.5-56.1l-58,58-7.1-7,64.2-64.2c-.9-29,4.1-58.1,15.3-85.3L11.3,439l-11.3-11.4L303.1,124.5c80.6-80.6,211.8-80.6,292.4,0,16.3,16.3,29.3,34.7,39,54.3l74.2-74.2,11.3,11.4-78.6,78.6c7.1,18.1,11.6,37,13.5,56.1l58-58,7.1,7ZM80.3,440L340,180.4c55.1-55.1,144.6-55.1,199.7,0,16.9,16.9,28.5,37,35.1,58.3l47.8-47.8c-9.2-19.9-21.9-38.6-38.3-55-74.4-74.4-195.4-74.4-269.7,0l-178.7,178.5c-34.9,34.8-53.4,79.9-55.6,125.6ZM511,302.3l55.6-55.6c-5.7-21.7-17-42.3-34-59.3-51.2-51.2-134.4-51.2-185.5,0l-159.7,159.6c-29.2,29.2-41.7,68.9-37.6,107.1l222.2-222.1c32-32,84-32,116,0s26.8,45.4,23,70.3ZM476.6,336.7h0c25.7-25.8,25.7-67.6,0-93.3s-67.6-25.7-93.4,0l-140,140c-25.7,25.7-25.7,67.6,0,93.4,25.7,25.7,67.6,25.7,93.4,0l140-140.1ZM153.4,473.2c5.7,21.7,17,42.3,34,59.3,51.2,51.2,134.4,51.2,185.5,0l159.6-159.5c29.2-29.2,41.7-68.9,37.6-107.1l-222.1,222.1c-32,32-84,32-116,0s-26.8-45.4-23-70.3l-55.6,55.5ZM91,513l50-50c-4.4-26.5-1.2-54.1,9.6-79.1l-70.4,70.4c.5,19.9,4.1,39.7,10.8,58.7ZM639.7,280l-259.7,259.6c-55.1,55.1-144.6,55.1-199.7,0-16.9-16.9-28.5-37-35.1-58.3l-47.8,47.8c9.2,19.9,21.9,38.6,38.3,55,74.4,74.4,195.4,74.4,269.7,0l178.6-178.5h0c35-34.9,53.5-79.9,55.7-125.6ZM639.8,265.7c-.5-19.9-4.1-39.8-10.8-58.8l-50,50c4.4,26.5,1.2,54.1-9.6,79.1l70.4-70.3ZM587,503.1l-209.9,209.8,7.1,7.1,198.7-198.7c.7-6.4,2.1-12.4,4.1-18.2ZM539.8,640.7l-72.2,72.2,7.1,7.1,71.8-71.8c-2.9-2.3-5.1-4.8-6.7-7.5ZM611.1,526.5c-3.5,49.4-11.1,65.9-27.8,86.2-9.7,11.8-16,25.5-18.6,35.4.5.2.9.4,1.4.7,17.8,7.8,33.3,13,45.2,15.4,12.7,2.5,19.1,3.2,22.7-.9-20.9-26.9-2.4-63.9,31.1-66.6,0,0-.7-7.3-1.5-18.1l-22.4,11.4c-2.5,1.3-5.5.3-6.7-2.2-1.3-2.5-.3-5.5,2.2-6.7l26.3-13.4c0-2.6-.3-5.4-.4-8.2l-17.7,9c-2.5,1.3-5.5.3-6.7-2.2-1.3-2.5-.3-5.5,2.2-6.7l21.8-11.2c0-2.8,0-5.5-.2-8.3l-13.5,6.9c-2.5,1.3-5.5.3-6.7-2.2-1.3-2.5-.3-5.5,2.2-6.7l18.1-9.2c0-1.2,0-2.5,0-3.7,0-1.7.2-3.3.3-4.9l-10.3,5.3c-2.5,1.3-5.5.3-6.7-2.2s-.3-5.5,2.2-6.7l16.6-8.5c4.7-23.3,15.7-42.9,17.2-58,0-.7,0-1.4,0-2-43.4,20.7-68.4,48.5-70.5,78.3ZM601.1,525.8c2.4-33.6,29.4-64.2,76.1-86.6-2.6-2-6.3-2.8-10.6-1.4-2.2.7-7.1,3-13.5,6.7l-4.7-5.3,2.2,6.8c-6.6,4-14.5,9.4-22.2,16.2l-6.3-5.3,4.1,7.2c-7.4,6.6-14.5,14.4-20.3,23.3l-5.8-2.7,4.5,4.6c-6.4,10.4-11,22.2-12,35.3-.9,12.7-2.5,23.3-4.5,32.4-8,30.8-23.5,42.3-30.7,52.8-10.9,15.9-15.4,24.3-1.5,32.8,3.4-11.3,10.1-24.7,19.6-36.2,14.8-18,22.1-31.7,25.6-80.6Z"/>
  </g>
</svg>