<?xml version="1.0" encoding="UTF-8"?>
<svg id="Layer_1" data-name="Layer 1" xmlns="http://www.w3.org/2000/svg" version="1.1" viewBox="0 0 810 999.59">
  <defs>
    <style>
      .cls-1 {
        stroke: #069f4a;
      }

      .cls-1, .cls-2, .cls-3, .cls-4, .cls-5 {
        fill: none;
        stroke-miterlimit: 10;
        stroke-width: 10px;
      }

      .cls-2 {
        stroke: #f3c317;
      }

      .cls-3 {
        stroke: #000;
      }

      .cls-4 {
        stroke: #0785c7;
      }

      .cls-5 {
        stroke: #de1f27;
      }
    </style>
  </defs>
  <path class="cls-2" d="M829.35,689.6c-117.62.69-273.43,13.14-450.09,60.06-164.48,43.68-297.83,104.16-396.71,157.93"/>
  <path class="cls-1" d="M829.35,731.14c-112.02,10.46-259.46,35.32-423.89,94.75-153.09,55.33-275.11,124.08-364.86,183.56"/>
  <path class="cls-4" d="M829.35,771.59c-110.31,22.11-254.34,62.25-411.66,138.54-146.47,71.03-260.64,152.16-343.67,220.69"/>
  <path class="cls-5" d="M829.35,811.03c-106.8,35.39-244.86,92.78-391.71,187.68-136.72,88.35-240.15,182.79-314.21,260.93"/>
  <path class="cls-3" d="M829.35,851.24c-100.83,49.91-229.57,125.96-361.78,240.37-123.09,106.52-212.38,214.43-274.84,302.12"/>
</svg>