<?xml version="1.0" encoding="UTF-8"?>
<svg id="Layer_1" data-name="Layer 1" xmlns="http://www.w3.org/2000/svg" xmlns:xlink="http://www.w3.org/1999/xlink" version="1.1" viewBox="0 0 720 720">
  <defs>
    <style>
      .cls-1 {
        clip-path: url(#clippath);
      }

      .cls-2 {
        fill: none;
      }

      .cls-2, .cls-3 {
        stroke-width: 0px;
      }

      .cls-3 {
        fill: #000;
      }
    </style>
    <clipPath id="clippath">
      <rect class="cls-2" width="720" height="720"/>
    </clipPath>
  </defs>
  <g class="cls-1">
    <path class="cls-3" d="M429.6,175c23.8-23.8,52.8-7.2,75.1-30.6,6.7-6.7,17.6-6.6,24.3.1l45.4,45.4c6.8,6.8,6.8,17.7,0,24.5l-40.5,40.6c-.3-.4-33.7-33.5-34-34-16.9-16.9-45-17.6-61.3,0-6.8,7.3-18.6,13.2-27.9,5.8-8.7-6.6-14.6-18.8-5.5-27.7,10.4-10.3,24.3-23.9,24.4-24.1ZM445.4,229.8c-14.1,14.5-32.8,16-46.4-.3-26.1,21.6-29.7,61.4-5.2,85.6,28.2,33.1,65,58.6,103.7,23.3,19.6-20.1,56-45.6,28.2-75.5-21-19.5-50.1-64.2-80.3-33.1ZM557,523l163-163-138.5-138.5-11.3,11.3,119.2,119.2h-35.7l-80.3-80.3-7.1,7.1,73.3,73.3h-35.7l-30.4-30.4-7.1,7.1,31.4,31.4-31.4,31.4,7.1,7.1,30.4-30.5h35.7l-73.3,73.3,7.1,7.1,80.3-80.3h35.7l-143.7,143.4,11.3,11.3ZM584.8,186.2l49.1-49.1-52.7-51.3-48.4,48.4c.1,0,51.9,51.9,52,52ZM352,30.6v35.7l-80.3,80.3,7.1,7.1,73.2-73.2v35.7l-30.4,30.4,7.1,7.1,31.4-31.4,31.4,31.4,7.1-7.1-30.6-30.3v-35.8l73.3,73.3,7.1-7.1-80.4-80.3V30.6l115.7,115.7c5-1.7,9.5-4.3,13.8-8.8h0L360,0l-163,163,11.3,11.3L352,30.6ZM66.3,77.7l576,576,11.3-11.3L77.6,66.4l-11.3,11.3ZM274.6,490.2c14.1-14.5,32.8-16,46.4.3,26.1-21.6,29.7-61.4,5.2-85.6-28.2-33.1-65-58.6-103.7-23.3-19.6,20.1-56,45.6-28.2,75.5,21,19.5,50.1,64.2,80.3,33.1ZM368,689.4v-35.7l80.3-80.3-7.1-7.1-73.2,73.2v-35.7l30.4-30.4-7.1-7.1-31.3,31.3-31.4-31.4-7.1,7.1,30.5,30.4v35.7l-73.3-73.3-7.1,7.1,80.3,80.3v35.7l-115.6-115.5c-5,1.7-9.5,4.3-13.8,8.8h0l137.5,137.5,163-163-11.3-11.3-143.7,143.7ZM163,197L0,360l138.5,138.5,11.3-11.3-119.2-119.2h35.7l80.3,80.3,7.1-7.1-73.2-73.2h35.7l30.4,30.4,7.1-7.1-31.3-31.3,31.4-31.4-7.1-7.1-30.4,30.5h-35.8l73.3-73.3-7.1-7.1-80.3,80.4H30.6l143.7-143.7-11.3-11.3ZM135.2,533.8l-49.1,49.1,52.7,51.3,48.4-48.4c-.1,0-51.9-51.9-52-52ZM314.7,520.9c9.2-8.9,3.3-21.1-5.5-27.7-9.3-7.5-21.1-1.6-27.9,5.8-16.3,17.5-44.4,16.9-61.3,0-.3-.4-33.6-33.5-34-34l-40.5,40.5c-6.8,6.8-6.8,17.7,0,24.5l45.4,45.4c6.7,6.7,17.6,6.9,24.3,0,22.3-23.4,51.2-6.8,75.1-30.6.2-.1,14.1-13.7,24.4-24Z"/>
  </g>
</svg>