<?xml version="1.0" encoding="UTF-8"?>
<svg id="Layer_1" data-name="Layer 1" xmlns="http://www.w3.org/2000/svg" xmlns:xlink="http://www.w3.org/1999/xlink" version="1.1" viewBox="0 0 720 720">
  <defs>
    <style>
      .cls-1 {
        clip-path: url(#clippath);
      }

      .cls-2 {
        fill: none;
      }

      .cls-2, .cls-3 {
        stroke-width: 0px;
      }

      .cls-3 {
        fill: #000;
      }
    </style>
    <clipPath id="clippath">
      <rect class="cls-2" width="720" height="720"/>
    </clipPath>
  </defs>
  <g class="cls-1">
    <path class="cls-3" d="M73.1,74.7c-.6-.6-.6-1.5,0-2.2.6-.6,1.5-.6,2.2,0,106,101.5,197.8,191,270.7,262.7v20.6c-67.9-69.2-157.7-161.3-273-281.1h0ZM65.4,288.8l-7.3,18.1-9.2-3.8,7.3-18.1c3.9-9.7,9.4-15.7,16.5-18.1v-9.4h82.9c39.4,0,62.7,31.4,62.7,83.9s-24.6,78.8-62.7,78.8h-4.8c-8.4,0-15.1,6.7-15.4,15-3.2-.1-5.9-1.4-8.3-3.6-7.4-7.4-9-24.2-9-30.1v-16h-9.9v16c0,1,0,25.2,11.9,37.1,11.9,11.9,9.4,6.4,15.3,6.7v11.1h-2.1c-9.5,0-17.1-2.9-23.1-9.2-15-15.4-14.3-45.2-14.3-45.7v-16h-9.9v15.8c0,1.4-.8,34.3,17.1,52.8,7.8,8.1,18.1,12.2,30.3,12.2h2.1v11.2h-5c-14.8,0-27.3-5-36.8-14.8-21.7-22.3-21-61.3-20.9-63v-121.6c-2.4,1.7-4.9,4.8-7.3,10.6h0ZM156.7,410.3c31.9-.6,51.7-26.9,51.7-68.8s-18.8-73.2-51.7-73.8v142.6h0ZM130.8,348.6h9.9v-81.1h-9.9v81.1ZM82.6,348.6h38.1v-81.1h-38.1v81.1ZM374.9,355.8c67.9-69.2,157.7-161.3,273-281.1.6-.6.6-1.5,0-2.2-.6-.6-1.5-.6-2.2,0-106,101.5-197.8,191-270.7,262.7v20.6ZM672.1,303.1l-9.2,3.8-7.3-18.1c-2.4-5.7-4.9-9-7.3-10.6v121.6c0,1.7.7,40.8-20.9,63-9.5,9.8-22,14.8-36.8,14.8h-5v-11.2h2.1c12.2,0,22.4-4.1,30.3-12.2,17.9-18.5,17.1-51.4,17.1-52.8v-15.8h-9.9v16c0,.4.7,30.3-14.3,45.7-6,6.2-13.6,9.2-23.1,9.2h-2.1v-11.1c5.9-.1,11.1-2.4,15.3-6.7,11.9-11.9,11.9-36.1,11.9-37.1v-16h-9.9v16c0,5.9-1.5,22.7-9,30.1-2.4,2.4-5,3.5-8.3,3.6-.3-8.3-7.1-15-15.4-15h-4.8c-38.1,0-62.7-31-62.7-78.8s23.4-83.9,62.7-83.9h82.9v9.4c7.1,2.4,12.7,8.5,16.5,18.1l7.3,18.1h0ZM564.1,267.5c-32.8.6-51.7,27.4-51.7,73.8s19.7,68.2,51.7,68.8v-142.6ZM590.2,267.5h-9.9v81.1h9.9v-81.1ZM638.2,267.5h-38.1v81.1h38.1v-81.1ZM67.1,642.3l11.3,11.3,50.4-50.4-11.3-11.3-50.4,50.4ZM651.9,595.4h0c0-31.1-25.2-56.2-56.2-56.2s-24.2,4.2-33.6,11.2l-32.2-32.2c-12.5-12.5-67.5-68.1-155.2-154.6v21.3c86.6,87.8,131.1,131.8,144,144.5l32.2,32.2c-7.3,9.7-11.2,21.3-11.2,33.6s.8,11.1,2.4,16.4l61.8-61.8c9.2,1.7,17.8,6,24.6,12.7,8.7,8.7,13.6,20.3,13.6,32.6s-3.4,20.2-9.5,28.2l-44-44-8.4,8.5,64.1,64.1,8.4-8.5-13-13c7.8-9.8,12.2-22.1,12.2-35.2ZM190.9,518.2l-29.4,29.4c-18.9-13.7-45.5-12-62.6,4.9l-3.2,3.2,68.5,68.5,3.2-3.2c16.8-16.8,18.6-43.1,5.3-62l29.4-29.6c12.9-12.9,57.4-56.7,144-144.5v-21.3c-87.7,86.6-142.7,142.3-155.2,154.6h0ZM408.4,72h-42.9v-10.4h9.2v-9.4c5.5-.6,10.9-2.2,15.7-5s3.2-4.5,1.8-6.9-4.5-3.2-6.9-1.8c-3.4,2-7.3,3.2-11.1,3.6-1-7-4.6-13-9.7-17.4V0h-20.4v18.1h-37.8v17.9h37.8v11.1c0,2,1.3,3.5,3.1,4.1,4.6,1.4,8,5.6,8,10.6v10.4h-42.9c8.4,15.8,24.2,26.9,42.9,28.6.4,183.7.6,400.1,3.4,578.3.3,13.4.7,27,1.1,40.5,0,.3.3.6.6.6h0c.3,0,.6-.3.6-.6.4-13.4.8-27,1.1-40.5,2.8-178.1,2.9-394.5,3.4-578.3,18.8-1.8,34.6-12.9,43-28.7Z"/>
  </g>
</svg>