<?xml version="1.0" encoding="UTF-8"?>
<svg id="Layer_1" data-name="Layer 1" xmlns="http://www.w3.org/2000/svg" xmlns:xlink="http://www.w3.org/1999/xlink" version="1.1" viewBox="0 0 720 720">
  <defs>
    <style>
      .cls-1 {
        clip-path: url(#clippath);
      }

      .cls-2 {
        fill: none;
      }

      .cls-2, .cls-3 {
        stroke-width: 0px;
      }

      .cls-3 {
        fill: #000;
      }
    </style>
    <clipPath id="clippath">
      <rect class="cls-2" width="720" height="720"/>
    </clipPath>
  </defs>
  <g class="cls-1">
    <path class="cls-3" d="M99.3,575.4l11.3,11.3-30.9,30.8-11.3-11.3,30.9-30.8ZM229.3,467.9c56.3-57.1,147-150,295.1-303.8.3-.3.4-.7.4-1.1s-.2-.8-.5-1.1l-.2-.2c-.3-.3-.7-.5-1.1-.5s-.8.1-1.1.4c-153.7,148.2-246.6,238.8-303.7,295.2-35.2,34.7-56.8,56.4-70.7,70.5-19.9-14.4-47.9-12.7-65.7,5.2l-5.7,5.7,71.9,71.8,5.7-5.7c17.9-17.9,19.6-45.9,5.2-65.7,14.1-13.9,35.7-35.5,70.4-70.7ZM239.1,235.6c2.8,0,5,2.2,5,5s-2.2,5-5,5h-27.9l-2.8,8.9h20.4c2.8,0,5,2.2,5,5s-2.2,5-5,5h-23.6l-2.8,8.9h16.1c2.8,0,5,2.2,5,5s-2.2,5-5,5h-19.3l-2.8,8.9h11.8c2.8,0,5,2.2,5,5s-2.2,5-5,5h-15l-.2.5c-4.4,13.8-8,20.6-15.4,33-6.2,10.5-13.4,22.5-15.5,31.9,6.1-4.6,10.9-6.6,15.6-6.6s7.9,2,9.7,3.2c1.6-.8,5.5-3.2,13.2-10.4,9-8.4,17.9-24.5,26.5-40,9.3-16.7,18-32.4,27.7-39.9,12.4-9.6,22.2-15.5,30.8-20.7,16.4-9.9,26.3-15.9,39.8-39.7l1.3-2.2c-9.5-8.6-27.5-22.7-49.6-30.3-17.3,13,.3,46.6-58.3,38.5l-4.7,16.1h25ZM334.3,218.4c-14.7,26-26.7,33.2-43.3,43.3-8.4,5.1-18,10.9-29.9,20.1-8.1,6.2-16.3,21.1-25.1,36.9-9,16.2-18.3,33-28.4,42.5-12.9,12.1-17.9,13.5-20.6,13.5s-3.4-.9-4.7-1.8-2.6-1.8-4.5-1.8c-3.4,0-8.4,3.1-15.6,9.6,0,0,9,19.7,42-4.2,0,0,33.7-20.3,54.4-55.1,5.5-9.2,12.6-17.3,21.2-23.5,30.2-21.6,46.1-41.5,46.1-41.5,25.4-26.3,15.8-33.1,8.4-38h0ZM116.3,116.4h83.1l16.6-33.2-99.7-49.9V0l-40.5,40.5C31.6,57,0,99.6,0,149.7s52.1,116.4,116.3,116.4V116.4ZM333.2,85.5c8.2,5.5,17.6,8.2,26.9,8.2s18.8-2.7,26.9-8.2c11-7.3,25.1-7.3,36.1,0,8,5.3,17.3,8.2,26.9,8.2v-16c-6.4,0-12.7-1.9-18.1-5.5-16.4-10.9-37.5-10.9-53.9,0-11,7.3-25.2,7.3-36.1,0-16.4-10.9-37.5-10.9-53.9,0-5.4,3.6-11.6,5.5-18.1,5.5v16c9.6,0,18.9-2.8,26.9-8.2,11.3-7.3,25.4-7.3,36.4,0ZM651.5,113.7l-11.3-11.3-30.8,30.8,11.3,11.3,30.8-30.8ZM333.2,49.5c8.2,5.5,17.6,8.2,26.9,8.2s18.8-2.7,26.9-8.2c11-7.3,25.1-7.3,36.1,0,8,5.3,17.3,8.2,26.9,8.2v-16c-6.4,0-12.7-1.9-18.1-5.5-16.4-10.9-37.5-10.9-53.9,0-11,7.3-25.2,7.3-36.1,0-16.4-10.9-37.5-10.9-53.9,0-5.4,3.6-11.6,5.5-18.1,5.5v16c9.6,0,18.9-2.8,26.9-8.2,11.3-7.3,25.4-7.3,36.4,0ZM333.2,121.5c8.2,5.5,17.6,8.2,26.9,8.2s18.8-2.7,26.9-8.2c11-7.3,25.1-7.3,36.1,0,8,5.3,17.3,8.2,26.9,8.2v-16c-6.4,0-12.7-1.9-18.1-5.5-16.4-10.9-37.5-10.9-53.9,0-11,7.3-25.2,7.3-36.1,0-16.4-10.9-37.5-10.9-53.9,0-5.4,3.6-11.6,5.5-18.1,5.5v16c9.6,0,18.9-2.8,26.9-8.2,11.3-7.3,25.4-7.3,36.4,0ZM467,438.7l7.5,7.5,24.4-24.4-8.6-8.6,92.4-92.4-11.3-11.3-92.4,92.4-5.3-5.3,115.5-115.5-11.3-11.3-201.5,201.4,9,19.2,14.4-14.4c4.8-4.8,12.5-4.8,17.3,0s4.8,12.5,0,17.3l-6,6,22.6,44.1,42.1-42.1-19.9-13.8c-7-4.9-7.9-14.9-1.9-20.9l11.9-11.9-7.5-7.5c-4.4-4.4-11.5-4.4-15.8,0l-10.4,10.4-7.1-7.1,12-12c8.2-8,21.7-8,29.9.2ZM386.8,598.5c-16.4-10.9-37.5-10.9-53.9,0-11,7.3-25.2,7.3-36.1,0-8-5.3-17.3-8.2-26.9-8.2v16c6.5,0,12.7,1.9,18.1,5.5,8.2,5.5,17.6,8.2,26.9,8.2s18.8-2.7,26.9-8.2c11-7.3,25.2-7.3,36.1,0,16.4,10.9,37.5,10.9,53.9,0,5.4-3.6,11.6-5.5,18.1-5.5v-16c-9.6,0-18.9,2.8-26.9,8.2-11.1,7.3-25.2,7.3-36.2,0ZM603.7,453.9v149.7h-83.1l-16.6,33.2,99.7,49.9v33.3l40.5-40.5c44.3-16.5,75.8-59.1,75.8-109.2s-52.1-116.4-116.3-116.4ZM572.5,192.8c19.9,14.4,47.9,12.7,65.7-5.2l5.7-5.7-71.9-71.9-5.7,5.7c-17.9,17.9-19.6,45.9-5.2,65.7-14.1,13.9-35.8,35.5-70.5,70.7-56.3,57.1-147,150-295.1,303.8-.3.3-.4.7-.4,1.1s.2.8.5,1.1l.2.2c.3.3.7.5,1.1.5s.8,0,1.1-.4c153.8-148.1,246.7-238.7,303.8-295.1,35.2-34.7,56.8-56.4,70.7-70.5ZM386.8,634.5c-16.4-10.9-37.5-10.9-53.9,0-11,7.3-25.2,7.3-36.1,0-8-5.3-17.3-8.2-26.9-8.2v16c6.5,0,12.7,1.9,18.1,5.5,8.2,5.5,17.6,8.2,26.9,8.2s18.8-2.7,26.9-8.2c11-7.3,25.2-7.3,36.1,0,16.4,10.9,37.5,10.9,53.9,0,5.4-3.6,11.6-5.5,18.1-5.5v-16c-9.6,0-18.9,2.8-26.9,8.2-11.1,7.3-25.2,7.3-36.2,0ZM386.8,670.5c-16.4-10.9-37.5-10.9-53.9,0-11,7.3-25.2,7.3-36.1,0-8-5.3-17.3-8.2-26.9-8.2v16c6.5,0,12.7,1.9,18.1,5.5,8.2,5.5,17.6,8.2,26.9,8.2s18.8-2.7,26.9-8.2c11-7.3,25.2-7.3,36.1,0,16.4,10.9,37.5,10.9,53.9,0,5.4-3.6,11.6-5.5,18.1-5.5v-16c-9.6,0-18.9,2.8-26.9,8.2-11.1,7.3-25.2,7.3-36.2,0Z"/>
  </g>
</svg>