<?xml version="1.0" encoding="UTF-8"?>
<svg id="Layer_1" data-name="Layer 1" xmlns="http://www.w3.org/2000/svg" xmlns:xlink="http://www.w3.org/1999/xlink" version="1.1" viewBox="0 0 1020 660.5">
  <defs>
    <style>
      .cls-1 {
        stroke: #000;
      }

      .cls-1, .cls-2, .cls-3, .cls-4, .cls-5, .cls-6 {
        fill: none;
      }

      .cls-1, .cls-3, .cls-4, .cls-5, .cls-6 {
        stroke-miterlimit: 60;
        stroke-width: 30px;
      }

      .cls-7 {
        clip-path: url(#clippath);
      }

      .cls-2, .cls-8 {
        stroke-width: 0px;
      }

      .cls-9 {
        clip-path: url(#clippath-1);
      }

      .cls-10 {
        clip-path: url(#clippath-4);
      }

      .cls-11 {
        clip-path: url(#clippath-3);
      }

      .cls-12 {
        clip-path: url(#clippath-2);
      }

      .cls-13 {
        clip-path: url(#clippath-7);
      }

      .cls-14 {
        clip-path: url(#clippath-8);
      }

      .cls-15 {
        clip-path: url(#clippath-6);
      }

      .cls-16 {
        clip-path: url(#clippath-5);
      }

      .cls-17 {
        clip-path: url(#clippath-9);
      }

      .cls-3 {
        stroke: #df0024;
      }

      .cls-8 {
        fill: #000;
      }

      .cls-4 {
        stroke: #0085c7;
      }

      .cls-5 {
        stroke: #009f3d;
      }

      .cls-18 {
        isolation: isolate;
      }

      .cls-6 {
        stroke: #f4c300;
      }
    </style>
    <clipPath id="clippath">
      <path class="cls-2" d="M15,180.5h330v330H15V180.5ZM345,323c-87,0-157.5,70.5-157.5,157.5s70.5,157.5,157.5,157.5v-45c-62.1,0-112.5-50.4-112.5-112.5s50.4-112.5,112.5-112.5M15,368c62.1,0,112.5,50.4,112.5,112.5s-50.4,112.5-112.5,112.5v45c87,0,157.5-70.5,157.5-157.5S102,323,15,323v45Z"/>
    </clipPath>
    <clipPath id="clippath-1">
      <polygon class="cls-2" points="180 345.5 0 525.5 180 525.5 180 345.5"/>
    </clipPath>
    <clipPath id="clippath-2">
      <path class="cls-2" d="M345,180.5h330v330h-330V180.5ZM675,323c-87,0-157.5,70.5-157.5,157.5s70.5,157.5,157.5,157.5v-45c-62.1,0-112.5-50.4-112.5-112.5s50.4-112.5,112.5-112.5M345,368c62.1,0,112.5,50.4,112.5,112.5s-50.4,112.5-112.5,112.5v45c87,0,157.5-70.5,157.5-157.5s-70.5-157.5-157.5-157.5v45Z"/>
    </clipPath>
    <clipPath id="clippath-3">
      <polygon class="cls-2" points="510 345.5 330 525.5 510 525.5 510 345.5"/>
    </clipPath>
    <clipPath id="clippath-4">
      <path class="cls-2" d="M675,180.5h330v330h-330V180.5ZM1005,323c-87,0-157.5,70.5-157.5,157.5s70.5,157.5,157.5,157.5v-45c-62.1,0-112.5-50.4-112.5-112.5s50.4-112.5,112.5-112.5M675,368c62.1,0,112.5,50.4,112.5,112.5s-50.4,112.5-112.5,112.5v45c87,0,157.5-70.5,157.5-157.5s-70.5-157.5-157.5-157.5v45Z"/>
    </clipPath>
    <clipPath id="clippath-5">
      <polygon class="cls-2" points="840 345.5 660 525.5 840 525.5 840 345.5"/>
    </clipPath>
    <clipPath id="clippath-6">
      <path class="cls-2" d="M510,645.5H180v-330h330v330ZM180,503c87,0,157.5-70.5,157.5-157.5s-70.5-157.5-157.5-157.5v45c62.1,0,112.5,50.4,112.5,112.5s-50.4,112.5-112.5,112.5M510,458c-62.1,0-112.5-50.4-112.5-112.5s50.4-112.5,112.5-112.5v-45c-87,0-157.5,70.5-157.5,157.5s70.5,157.5,157.5,157.5v-45Z"/>
    </clipPath>
    <clipPath id="clippath-7">
      <polygon class="cls-2" points="345 480.5 525 300.5 345 300.5 345 480.5"/>
    </clipPath>
    <clipPath id="clippath-8">
      <path class="cls-2" d="M840,645.5h-330v-330h330v330ZM510,503c87,0,157.5-70.5,157.5-157.5s-70.5-157.5-157.5-157.5v45c62.1,0,112.5,50.4,112.5,112.5s-50.4,112.5-112.5,112.5M840,458c-62.1,0-112.5-50.4-112.5-112.5s50.4-112.5,112.5-112.5v-45c-87,0-157.5,70.5-157.5,157.5s70.5,157.5,157.5,157.5v-45Z"/>
    </clipPath>
    <clipPath id="clippath-9">
      <polygon class="cls-2" points="675 480.5 855 300.5 675 300.5 675 480.5"/>
    </clipPath>
  </defs>
  <g>
    <g>
      <g id="ring">
        <g class="cls-7">
          <circle class="cls-4" cx="180" cy="345.5" r="135"/>
        </g>
        <g class="cls-9">
          <circle class="cls-4" cx="180" cy="345.5" r="135"/>
        </g>
        <path class="cls-4" d="M275.5,250.1c52.7,52.7,52.7,138.2,0,190.9"/>
      </g>
      <path class="cls-4" d="M180,210.5c-74.6,0-135,60.4-135,135s60.4,135,135,135"/>
    </g>
    <g id="ring-2">
      <g class="cls-12">
        <circle class="cls-1" cx="510" cy="345.5" r="135"/>
      </g>
      <g class="cls-11">
        <circle class="cls-1" cx="510" cy="345.5" r="135"/>
      </g>
      <path class="cls-1" d="M605.5,250.1c52.7,52.7,52.7,138.2,0,190.9"/>
    </g>
    <g>
      <g id="ring-3">
        <g class="cls-10">
          <circle class="cls-3" cx="840" cy="345.5" r="135"/>
        </g>
        <g class="cls-16">
          <circle class="cls-3" cx="840" cy="345.5" r="135"/>
        </g>
        <path class="cls-3" d="M935.5,250.1c52.7,52.7,52.7,138.2,0,190.9"/>
      </g>
      <path class="cls-3" d="M840,210.5c74.6,0,135,60.4,135,135s-60.4,135-135,135"/>
    </g>
    <g id="ring-4">
      <g class="cls-15">
        <circle class="cls-6" cx="345" cy="480.5" r="135"/>
      </g>
      <g class="cls-13">
        <circle class="cls-6" cx="345" cy="480.5" r="135"/>
      </g>
      <path class="cls-6" d="M249.5,576c-52.7-52.7-52.7-138.2,0-190.9"/>
    </g>
    <g id="ring-5">
      <g class="cls-14">
        <circle class="cls-5" cx="675" cy="480.5" r="135"/>
      </g>
      <g class="cls-17">
        <circle class="cls-5" cx="675" cy="480.5" r="135"/>
      </g>
      <path class="cls-5" d="M579.5,576c-52.7-52.7-52.7-138.2,0-190.9"/>
    </g>
  </g>
  <g class="cls-18">
    <path class="cls-8" d="M184,19.2c6.3,1.8,12.8,4.6,19.3,8.5l4.6-3.8c3.2-2.5,5.8-4.3,7.9-5.2,2.1-.9,4.4-1.4,7.1-1.4s5.7.7,7.6,2.1c1.9,1.4,2.8,3.4,2.8,6.1s-.2,2.2-.6,3.4l-8.4,27.6c-.9,3.2-2.1,5.5-3.5,6.8-1.4,1.3-3.5,2-6.3,2s-5.5-.9-7.7-2.7c-2.2-1.8-5.6-5.5-10.3-11.1-4.7-5.3-8.9-9.1-12.7-11.3-3.8-2.2-7.7-3.3-11.7-3.3s-5.4,1-7.4,2.9c-2,1.9-3,4.3-3,7.1s1.6,6.2,4.8,8.9c3.2,2.7,8.2,6.2,15,10.3,6.9,4.1,12.7,7.9,17.2,11.2,4.5,3.3,8.4,7.5,11.6,12.4,3.2,4.9,4.8,10.6,4.8,17s-.7,8.3-2,12.4c-3.2,10.7-9.4,18.8-18.6,24.3-9.2,5.5-19.9,8.3-32.2,8.3s-16.9-1.1-23.2-3.2c-6.3-2.1-12.7-5.7-19.2-10.8l-7.2,6c-3.3,2.8-6.1,4.7-8.2,5.7-2.1,1-4.5,1.5-7.2,1.5s-5.5-.7-7.3-2.2c-1.8-1.5-2.7-3.5-2.7-6s.3-2.7.8-4.2l9.8-29.8c1.1-3.5,2.5-5.9,4.4-7.4,1.9-1.5,4.3-2.2,7.2-2.2s5.8,1.1,8.3,3.2c2.5,2.1,5.7,6,9.7,11.6,4.3,6.1,8.2,10.4,11.9,12.8,3.7,2.4,8,3.6,13.1,3.6s6.4-.6,8.3-1.7c1.9-1.1,3.3-3,4.1-5.5.3-.7.4-1.7.4-3,0-3.2-1.5-6.1-4.6-8.8-3.1-2.7-7.8-5.9-14.2-9.6-6.8-4.1-12.3-7.8-16.6-11.1-4.3-3.3-8-7.4-11.1-12.3-3.1-4.9-4.7-10.7-4.7-17.4s.7-9.3,2.2-13.8c2.8-9.2,8.5-16.6,17.2-22.2,8.7-5.6,18.6-8.4,29.8-8.4s14.4.9,20.7,2.7Z"/>
    <path class="cls-8" d="M359.1,26.6c9.5,7.9,14.2,19.4,14.2,34.3s-1.1,14.7-3.2,22.8c-4,14.9-10.2,27.6-18.6,38-8.4,10.4-18.4,18.3-30,23.6-11.6,5.3-24.2,8-37.8,8s-29.7-4-39.2-11.9c-9.5-7.9-14.2-19.4-14.2-34.3s1.1-14.6,3.4-23.4c3.9-14.8,10-27.4,18.3-37.7,8.3-10.3,18.3-18.1,29.8-23.4,11.5-5.3,24.2-7.9,37.9-7.9s29.9,4,39.4,11.9ZM305.3,39.1c-3.2,3.2-6.4,8.4-9.5,15.7-3.1,7.3-6.5,17.4-10.1,30.3-5.3,18.7-8,31.5-8,38.6s.7,7.1,2.2,9c1.5,1.9,3.8,2.8,7,2.8s7.6-1.6,10.8-4.9c3.2-3.3,6.3-8.5,9.4-15.7,3.1-7.2,6.5-17.1,10.2-29.8,5.2-18.4,7.8-31.3,7.8-38.8s-.7-7.3-2.2-9.2c-1.5-1.9-3.7-2.8-6.8-2.8s-7.6,1.6-10.8,4.8Z"/>
    <path class="cls-8" d="M441.1,42.9c.3-.8.4-1.9.4-3.2,0-2.1-.6-3.9-1.7-5.2-1.1-1.3-2.9-2.8-5.3-4.4-2-1.5-3.4-2.7-4.3-3.8-.9-1.1-1.1-2.3-.7-3.8.4-1.9,1.4-3.1,3-3.8,1.6-.7,4.1-1,7.6-1h56.8c2.8,0,5,.5,6.5,1.4,1.5.9,2.3,2.1,2.3,3.6s-.2,1.5-.6,2.6c-.4.9-1,1.8-1.7,2.5s-1.4,1.3-2,1.6c-.6.3-1,.6-1.3.9-2.1,1.2-3.9,2.5-5.2,4-1.3,1.5-2.5,3.7-3.4,6.8l-19.6,69.2c-4,14.1-10.8,24.6-20.4,31.5-9.6,6.9-22.1,10.3-37.4,10.3s-19-1.5-26.1-4.5c-7.1-3-12.5-7-16.1-12.1-3.6-5.1-5.4-10.6-5.4-16.6s.4-5.8,1.2-8.6c1.7-6,4.7-10.5,8.9-13.6,4.2-3.1,8.9-4.6,14.1-4.6s10.6,1.8,13.8,5.4c3.2,3.6,4.8,8.2,4.8,13.8s-.4,5.6-1.2,8.4c-1.6,5.6-4.6,9.7-9,12.4,2.1,1.3,4.6,2,7.4,2s5.3-1.4,7.4-4.2c2.1-2.8,3.9-6.7,5.4-11.8l21.8-75.2Z"/>
    <path class="cls-8" d="M623.7,26.6c9.5,7.9,14.2,19.4,14.2,34.3s-1.1,14.7-3.2,22.8c-4,14.9-10.2,27.6-18.6,38-8.4,10.4-18.4,18.3-30,23.6-11.6,5.3-24.2,8-37.8,8s-29.7-4-39.2-11.9c-9.5-7.9-14.2-19.4-14.2-34.3s1.1-14.6,3.4-23.4c3.9-14.8,10-27.4,18.3-37.7,8.3-10.3,18.3-18.1,29.8-23.4,11.5-5.3,24.2-7.9,37.9-7.9s29.9,4,39.4,11.9ZM569.9,39.1c-3.2,3.2-6.4,8.4-9.5,15.7-3.1,7.3-6.5,17.4-10.1,30.3-5.3,18.7-8,31.5-8,38.6s.7,7.1,2.2,9c1.5,1.9,3.8,2.8,7,2.8s7.6-1.6,10.8-4.9c3.2-3.3,6.3-8.5,9.4-15.7,3.1-7.2,6.5-17.1,10.2-29.8,5.2-18.4,7.8-31.3,7.8-38.8s-.7-7.3-2.2-9.2c-1.5-1.9-3.7-2.8-6.8-2.8s-7.6,1.6-10.8,4.8Z"/>
    <path class="cls-8" d="M747.2,23.4c9.8,3.8,17.3,8.8,22.4,14.9,5.1,6.1,7.7,12.7,7.7,19.6s-.4,5.1-1.2,7.8c-1.9,5.6-5,10-9.4,13.2-4.4,3.2-11.1,6.1-20.2,8.7-9.1,2.6-23,5.7-41.8,9.3-11.3,2.1-19.8,4-25.5,5.7-5.7,1.7-9.6,3.4-11.8,5.3-2.2,1.9-3.4,4.3-3.7,7.2h57.6c8,0,14.1-1.1,18.2-3.2,4.1-2.1,8-5,11.6-8.6,1.6-1.7,2.9-3,3.9-3.7,1-.7,2.2-1.1,3.5-1.1,2.4,0,4.6,1.6,6.6,4.9,2,3.3,3,7.4,3,12.5s-.6,7.1-1.8,11.4c-2.7,8.5-7.5,14.6-14.4,18.2-6.9,3.6-17.4,5.4-31.4,5.4h-70.6c-4.3,0-7.7-1.8-10.3-5.4-2.6-3.6-3.9-8.5-3.9-14.6s.8-9.5,2.4-14.8c2.8-9.2,7.9-16.6,15.4-22.3,7.5-5.7,18-10.4,31.6-14.3,9.1-2.7,16.1-5.3,21-7.9,4.9-2.6,8.5-5.2,10.6-7.8,2.1-2.6,3.8-5.8,5-9.7.7-2.7,1-4.9,1-6.6,0-3.7-1.1-6.7-3.4-9-2.3-2.3-5.3-3.4-9.2-3.4s-2.9.3-5.6.8c.1.8.2,2,.2,3.6,0,9.1-2.7,15.9-8.2,20.4-5.5,4.5-12.3,6.8-20.6,6.8s-11-1.6-14.6-4.8c-3.6-3.2-5.4-7.5-5.4-13s.3-5.1,1-7.2c2.4-7.9,8.5-13.8,18.2-17.9,9.7-4.1,22.2-6.1,37.4-6.1s24.9,1.9,34.7,5.7Z"/>
    <path class="cls-8" d="M929.3,98.5c2.1,1.3,3.2,3.1,3.2,5.2s-.1,1.1-.4,2.2c-1.5,6.1-7,9.2-16.6,9.2h-9l-3.4,12.2c-.5,1.7-.8,3.5-.8,5.2s.2,2.9.7,3.9c.5,1,1.1,2.2,1.9,3.5,1.2,1.7,1.8,3.2,1.8,4.4,0,2.4-1,4.1-2.9,5.1-1.9,1-5,1.5-9.3,1.5h-46c-3.5,0-6-.7-7.7-2-1.7-1.3-2.2-3.1-1.7-5.4.4-1.2.9-2.1,1.6-2.7.7-.6,1.8-1.4,3.4-2.5,2.1-1.3,3.9-2.7,5.3-4.2,1.4-1.5,2.6-3.7,3.5-6.8l3.4-11.8c-11.9.4-24.3,1.4-37.4,3-11.5,1.2-20,1.8-25.6,1.8s-6.7-.9-9-2.7c-2.3-1.8-3.4-4.1-3.4-6.9s1.1-6.4,3.4-8.9c2.3-2.5,5.7-5.3,10.4-8.5,4.8-3.5,8.5-6.5,11.2-9.2,2.7-2.7,4.6-6,5.8-10,.5-1.6.8-3.4.8-5.4s-.5-5.5-1.5-8c-1-2.5-2.6-5.9-4.7-10-1.9-3.5-3.3-6.4-4.3-8.8s-1.5-4.8-1.5-7.2.2-3.1.6-4.4c1.3-4.1,3.9-7.3,7.6-9.4,3.7-2.1,8.3-3.2,13.6-3.2s12.6,1.7,18.5,5.2c5.9,3.5,10.8,8.2,14.5,14.1,3.7,5.9,5.6,12.3,5.6,19.1s-.4,6-1.2,9.2c-2.4,8.4-7.2,15.3-14.4,20.6-7.2,5.3-18.5,10.7-34,16,19.3-2.9,36.1-4.6,50.2-5l16.8-59.2c1.3-4.7,3.3-7.9,6-9.7,2.7-1.8,6.6-2.7,11.8-2.7h21.6c3.6,0,6.3.8,8.2,2.3,1.9,1.5,2.8,3.7,2.8,6.5s-.3,3.4-.8,5l-16.2,57.4h9.2c3.5,0,6.3.7,8.4,2Z"/>
  </g>
</svg>