<?xml version="1.0" encoding="UTF-8"?>
<svg id="Layer_1" data-name="Layer 1" xmlns="http://www.w3.org/2000/svg" xmlns:xlink="http://www.w3.org/1999/xlink" version="1.1" viewBox="0 0 1020 660.54">
  <defs>
    <style>
      .cls-1, .cls-2 {
        stroke: #000;
      }

      .cls-1, .cls-2, .cls-3, .cls-4, .cls-5, .cls-6, .cls-7, .cls-8, .cls-9, .cls-10, .cls-11 {
        fill: none;
      }

      .cls-1, .cls-5, .cls-7, .cls-9, .cls-10 {
        stroke-miterlimit: 60;
        stroke-width: 30px;
      }

      .cls-2, .cls-4, .cls-6, .cls-8, .cls-11 {
        stroke-miterlimit: 60;
        stroke-width: 30px;
      }

      .cls-12 {
        clip-path: url(#clippath);
      }

      .cls-3 {
        stroke-width: 0px;
      }

      .cls-13 {
        clip-path: url(#clippath-1);
      }

      .cls-14 {
        clip-path: url(#clippath-4);
      }

      .cls-15 {
        clip-path: url(#clippath-3);
      }

      .cls-16 {
        clip-path: url(#clippath-2);
      }

      .cls-17 {
        clip-path: url(#clippath-7);
      }

      .cls-18 {
        clip-path: url(#clippath-8);
      }

      .cls-19 {
        clip-path: url(#clippath-6);
      }

      .cls-20 {
        clip-path: url(#clippath-5);
      }

      .cls-21 {
        clip-path: url(#clippath-9);
      }

      .cls-4, .cls-5 {
        stroke: #df0024;
      }

      .cls-22 {
        fill: #000;
        font-family: Shrikhand-Regular, Shrikhand;
        font-size: 200px;
      }

      .cls-6, .cls-7 {
        stroke: #0085c7;
      }

      .cls-8, .cls-9 {
        stroke: #009f3d;
      }

      .cls-10, .cls-11 {
        stroke: #f4c300;
      }
    </style>
    <clipPath id="clippath">
      <path class="cls-3" d="M15,180.54h330v330H15V180.54ZM345,323.04c-86.98,0-157.5,70.52-157.5,157.5s70.52,157.5,157.5,157.5v-45c-62.13,0-112.5-50.37-112.5-112.5s50.37-112.5,112.5-112.5M15,368.04c62.13,0,112.5,50.37,112.5,112.5s-50.37,112.5-112.5,112.5v45c86.98,0,157.5-70.52,157.5-157.5S101.98,323.04,15,323.04v45Z"/>
    </clipPath>
    <clipPath id="clippath-1">
      <polygon class="cls-3" points="180 345.54 0 525.54 180 525.54 180 345.54"/>
    </clipPath>
    <clipPath id="clippath-2">
      <path class="cls-3" d="M345,180.54h330v330h-330V180.54ZM675,323.04c-86.98,0-157.5,70.52-157.5,157.5s70.52,157.5,157.5,157.5v-45c-62.13,0-112.5-50.37-112.5-112.5s50.37-112.5,112.5-112.5M345,368.04c62.13,0,112.5,50.37,112.5,112.5s-50.37,112.5-112.5,112.5v45c86.98,0,157.5-70.52,157.5-157.5s-70.52-157.5-157.5-157.5v45Z"/>
    </clipPath>
    <clipPath id="clippath-3">
      <polygon class="cls-3" points="510 345.54 330 525.54 510 525.54 510 345.54"/>
    </clipPath>
    <clipPath id="clippath-4">
      <path class="cls-3" d="M675,180.54h330v330h-330V180.54ZM1005,323.04c-86.98,0-157.5,70.52-157.5,157.5s70.52,157.5,157.5,157.5v-45c-62.13,0-112.5-50.37-112.5-112.5s50.37-112.5,112.5-112.5M675,368.04c62.13,0,112.5,50.37,112.5,112.5s-50.37,112.5-112.5,112.5v45c86.98,0,157.5-70.52,157.5-157.5s-70.52-157.5-157.5-157.5v45Z"/>
    </clipPath>
    <clipPath id="clippath-5">
      <polygon class="cls-3" points="840 345.54 660 525.54 840 525.54 840 345.54"/>
    </clipPath>
    <clipPath id="clippath-6">
      <path class="cls-3" d="M510,645.54H180v-330h330v330ZM180,503.04c86.98,0,157.5-70.52,157.5-157.5s-70.52-157.5-157.5-157.5v45c62.13,0,112.5,50.37,112.5,112.5s-50.37,112.5-112.5,112.5M510,458.04c-62.13,0-112.5-50.37-112.5-112.5s50.37-112.5,112.5-112.5v-45c-86.98,0-157.5,70.52-157.5,157.5s70.52,157.5,157.5,157.5v-45Z"/>
    </clipPath>
    <clipPath id="clippath-7">
      <polygon class="cls-3" points="345 480.54 525 300.54 345 300.54 345 480.54"/>
    </clipPath>
    <clipPath id="clippath-8">
      <path class="cls-3" d="M840,645.54h-330v-330h330v330ZM510,503.04c86.98,0,157.5-70.52,157.5-157.5s-70.52-157.5-157.5-157.5v45c62.13,0,112.5,50.37,112.5,112.5s-50.37,112.5-112.5,112.5M840,458.04c-62.13,0-112.5-50.37-112.5-112.5s50.37-112.5,112.5-112.5v-45c-86.98,0-157.5,70.52-157.5,157.5s70.52,157.5,157.5,157.5v-45Z"/>
    </clipPath>
    <clipPath id="clippath-9">
      <polygon class="cls-3" points="675 480.54 855 300.54 675 300.54 675 480.54"/>
    </clipPath>
  </defs>
  <g>
    <g>
      <g id="ring">
        <g class="cls-12">
          <circle class="cls-6" cx="180" cy="345.54" r="135"/>
        </g>
        <g class="cls-13">
          <circle class="cls-6" cx="180" cy="345.54" r="135"/>
        </g>
        <path class="cls-7" d="M275.46,250.08c52.72,52.72,52.72,138.2,0,190.92"/>
      </g>
      <path class="cls-6" d="M180,210.54c-74.56,0-135,60.44-135,135s60.44,135,135,135"/>
    </g>
    <g id="ring-2" data-name="ring">
      <g class="cls-16">
        <circle class="cls-2" cx="510" cy="345.54" r="135"/>
      </g>
      <g class="cls-15">
        <circle class="cls-2" cx="510" cy="345.54" r="135"/>
      </g>
      <path class="cls-1" d="M605.46,250.08c52.72,52.72,52.72,138.2,0,190.92"/>
    </g>
    <g>
      <g id="ring-3" data-name="ring">
        <g class="cls-14">
          <circle class="cls-4" cx="840" cy="345.54" r="135"/>
        </g>
        <g class="cls-20">
          <circle class="cls-4" cx="840" cy="345.54" r="135"/>
        </g>
        <path class="cls-5" d="M935.46,250.08c52.72,52.72,52.72,138.2,0,190.92"/>
      </g>
      <path class="cls-4" d="M840,210.54c74.56,0,135,60.44,135,135s-60.44,135-135,135"/>
    </g>
    <g id="ring-4" data-name="ring">
      <g class="cls-19">
        <circle class="cls-11" cx="345" cy="480.54" r="135"/>
      </g>
      <g class="cls-17">
        <circle class="cls-11" cx="345" cy="480.54" r="135"/>
      </g>
      <path class="cls-10" d="M249.54,576c-52.72-52.72-52.72-138.2,0-190.92"/>
    </g>
    <g id="ring-5" data-name="ring">
      <g class="cls-18">
        <circle class="cls-8" cx="675" cy="480.54" r="135"/>
      </g>
      <g class="cls-21">
        <circle class="cls-8" cx="675" cy="480.54" r="135"/>
      </g>
      <path class="cls-9" d="M579.54,576c-52.72-52.72-52.72-138.2,0-190.92"/>
    </g>
  </g>
  <text class="cls-22" transform="translate(88.5 150.91)"><tspan x="0" y="0">SOJO24</tspan></text>
</svg>